<svg xmlns="http://www.w3.org/2000/svg" width="1440" height="405" viewBox="0 0 1440 405"><title>Art_Hearts_withBackground</title><g fill="none" fill-rule="evenodd"><path fill="#ff7716" d="M0 81h1441v324H0zM351.295 27.87c-7.498-8.416-19.117-1.24-17.695 8.878.962 6.845 7.834 10.857 13.001 13.883 5.375 3.144 6.844 3.773 8.61 5.104 1.33-1.766 2.498-2.848 6.87-7.28 4.213-4.268 9.623-10.16 8.66-17.003-1.41-10.043-14.559-13.739-19.446-3.581M1027.937 10.219c-6.226-8.667-17.876-3.06-17.538 6.606.228 6.54 6.3 10.997 10.866 14.358 4.75 3.493 6.07 4.23 7.602 5.657 1.427-1.53 2.633-2.434 7.188-6.174 4.39-3.6 10.065-8.613 9.837-15.151-.335-9.595-12.349-14.376-17.955-5.296"/><path d="M1181.114 60.582c-4.288-9.772-16.85-6.71-18.529 2.816-1.136 6.444 3.877 12.066 7.645 16.302 3.92 4.404 5.058 5.4 6.259 7.115 1.714-1.2 3.081-1.834 8.315-4.545 5.042-2.61 11.635-6.332 12.772-12.775 1.667-9.455-9.09-16.629-16.462-8.913" fill="#ff7716"/><path d="M509.963 116.89c-7.034-8.474-18.624-1.863-17.581 8.064.706 6.717 7.279 10.868 12.221 14 5.142 3.253 6.555 3.917 8.233 5.276 1.36-1.678 2.536-2.695 6.957-6.873 4.26-4.024 9.742-9.593 9.036-16.308-1.036-9.854-13.748-13.91-18.866-4.16M1004.598 100.788c-7.985-14.003-26.374-7.42-27.393 7.157-.69 9.861 7.73 17.517 14.06 23.286 6.584 5.998 8.452 7.314 10.526 9.7 2.387-2.074 4.341-3.24 11.776-8.14 7.162-4.717 16.481-11.352 17.17-21.21 1.012-14.47-16.282-23.549-26.139-10.793" fill="#FFF"/><path d="M511.997 9.987c-9.149-17.43-31.869-10.178-33.734 7.566-1.261 12.005 8.687 21.706 16.165 29.016 7.78 7.6 10.003 9.286 12.433 12.286 3-2.43 5.435-3.77 14.717-9.432 8.941-5.451 20.596-13.15 21.858-25.152 1.85-17.614-18.867-29.43-31.439-14.284M621.715 62.803c-9.149-17.429-31.869-10.178-33.734 7.566-1.262 12.005 8.687 21.706 16.165 29.017 7.78 7.6 10.003 9.285 12.433 12.285 3-2.43 5.435-3.77 14.716-9.432 8.942-5.451 20.597-13.15 21.858-25.152 1.852-17.613-18.866-29.43-31.438-14.284M1069.822 53.617c-14.786-12.993-33.4 1.919-28.781 19.152 3.124 11.66 15.888 17.152 25.49 21.297 9.985 4.307 12.665 5.083 16.01 7.014 1.93-3.344 3.722-5.468 10.358-14.08 6.394-8.293 14.516-19.658 11.393-31.315-4.584-17.107-28.16-20.714-34.47-2.068M1281.114 25.582c-4.288-9.772-16.85-6.71-18.529 2.816-1.136 6.444 3.877 12.066 7.645 16.302 3.92 4.404 5.058 5.4 6.259 7.115 1.714-1.2 3.081-1.834 8.315-4.545 5.042-2.61 11.635-6.332 12.772-12.775 1.667-9.455-9.09-16.629-16.462-8.913M286.012 66.33c-7.497-8.416-19.117-1.24-17.695 8.878.962 6.845 7.834 10.857 13.001 13.882 5.376 3.145 6.845 3.774 8.61 5.104 1.33-1.765 2.498-2.847 6.87-7.28 4.214-4.267 9.623-10.159 8.661-17.002-1.411-10.043-14.56-13.739-19.447-3.581" fill="#ff7716"/></g></svg>