<?xml version="1.0" encoding="utf-8"?>
<!-- Generator: Adobe Illustrator 23.0.5, SVG Export Plug-In . SVG Version: 6.00 Build 0)  -->
<svg version="1.1" id="Layer_1" xmlns="http://www.w3.org/2000/svg" xmlns:xlink="http://www.w3.org/1999/xlink" x="0px" y="0px"
	 viewBox="0 0 39 34" style="enable-background:new 0 0 39 34;" xml:space="preserve">
<style type="text/css">
	.st0{fill:#FCAA2C;}
	.st1{fill:#24153C;}
</style>
<path class="st0" d="M36.1,28.4c-0.2,0.5-0.3,1-0.6,1.4c-0.6,0.8-1.4,1.2-2.4,1.2c-1.9,0-3.9,0-5.8,0c-0.6,0-1-0.4-1-1
	c0-0.6,0.4-1,1-1c1,0,1.9,0,2.9,0c0-0.7,0-1.3,0-2c-0.2,0-0.3,0-0.5,0c-0.7,0-1.4,0-2.1,0c-0.9,0-1.4-0.3-1.4-1c0-0.6,0.5-1,1.4-1
	c0.7,0,1.5,0,2.2,0c0.1,0,0.2,0,0.3,0c0-0.7,0-1.3,0-2c-0.1,0-0.2,0-0.3,0c-0.8,0-1.7,0-2.5,0c-0.6,0-1.1-0.4-1.1-1
	c0-0.6,0.4-1,1.1-1c0.9,0,1.9,0,2.8,0c0-0.7,0-1.3,0-2c-0.8,0-1.7,0-2.5,0c-0.1,0-0.3,0-0.4,0c-0.5,0-1-0.4-1-1c0-0.5,0.4-1,1-1
	c0.8,0,1.7,0,2.5,0c0.1,0,0.3,0,0.4,0c0-0.7,0-1.3,0-2c-0.3,0-0.6,0-0.8,0c-0.7,0-1.4,0-2,0c-0.6,0-1-0.4-1-1c0-0.5,0.4-1,1-1
	c0.9,0,1.7,0,2.6,0c0.1,0,0.2,0,0.3,0c0-0.7,0-1.3,0-2c-0.1,0-0.2,0-0.3,0c-0.8,0-1.7,0-2.5,0c-0.6,0-1.1-0.4-1.1-1
	c0-0.6,0.4-1,1.1-1c0.9,0,1.9,0,2.8,0c0-0.7,0-1.3,0-1.9c-0.1,0-0.2,0-0.2,0c-0.6,0-1.2,0-1.7,0c-1.5,0-1.9-0.2-1.9-1
	c0-0.8,0.5-1,2-1c0.6,0,1.3,0,2,0c0-0.7,0-1.3,0-2c-0.7,0-1.4,0-2,0c-0.3,0-0.6,0-0.9,0c-0.6,0-1-0.5-1-1c0-0.5,0.4-1,1-1
	c2,0,4,0,6,0c1.5,0,2.6,1,2.8,2.5c0,0,0,0.1,0,0.1C36.1,12.2,36.1,20.3,36.1,28.4z M32.1,29c0.2,0,0.4,0,0.7,0c1,0,1.3-0.3,1.3-1.3
	c0-7.7,0-15.4,0-23.1c0-0.1,0-0.2,0-0.4c0-0.5-0.4-0.9-0.9-0.9c-0.4,0-0.7,0-1.1,0C32.1,12,32.1,20.5,32.1,29z"/>
<path class="st1" d="M13.2,23.6c-0.3,0.7-0.6,1.3-0.8,1.9c0,0.1,0,0.3,0,0.4c0.1,2.9-2.4,5.2-5.3,5.1c-2.4-0.2-4.5-2.2-4.6-4.7
	c-0.1-2.5,1.7-4.7,4.2-5.1c0.3,0,0.5-0.1,0.8,0c0.3,0,0.4-0.1,0.6-0.4c0.6-1.3,1.2-2.7,1.8-4c0.1-0.2,0.1-0.4,0-0.5
	c-1.2-2.8-2.5-5.5-3.7-8.3c-1-2.3,0-5.1,2.2-6.3C9,1.3,9.6,1.5,9.9,2.2c1,2.3,2.1,4.6,3.1,6.9c0,0.1,0.1,0.2,0.2,0.3
	c0.1-0.1,0.1-0.2,0.2-0.3c1-2.3,2.1-4.6,3.1-6.8c0.4-0.8,0.9-1,1.7-0.5c2.1,1.2,3.1,3.9,2.1,6.2c-1.2,2.8-2.5,5.6-3.7,8.4
	c-0.1,0.2-0.1,0.4,0,0.5c0.6,1.4,1.3,2.8,1.9,4.2c0.1,0.2,0.2,0.3,0.4,0.2c2.7-0.3,5,1.7,5.3,4.4c0.3,2.5-1.6,5-4.2,5.3
	c-2.9,0.4-5.5-1.7-5.6-4.7c0-0.1,0-0.2,0-0.3C13.9,25.2,13.6,24.4,13.2,23.6z M9.8,21.7c0.5,0.5,1,0.9,1.5,1.3
	c0-0.1,0.1-0.2,0.1-0.3c1.3-3,2.7-6,4-9c1-2.2,2-4.4,3-6.7c0.4-1,0.2-2.3-0.6-3.1C15.1,9.9,12.5,15.8,9.8,21.7z M10.3,26.1
	c0-1.6-1.3-2.9-2.9-3c-1.6-0.1-2.9,1.2-3,2.9c-0.1,1.6,1.3,3,2.9,3C8.9,29.1,10.3,27.7,10.3,26.1z M22.1,26.1c0-1.6-1.3-2.9-2.9-3
	c-1.6,0-2.9,1.3-3,2.9c0,1.6,1.3,3,2.9,3C20.8,29,22.1,27.7,22.1,26.1z M8.5,4c-0.8,0.9-1,2.1-0.5,3.3c0.7,1.5,1.4,3.1,2.1,4.6
	c0.3,0.7,0.6,1.4,1,2.2c0.3-0.7,0.6-1.4,0.9-2c0.1-0.1,0.1-0.3,0-0.4c-0.4-0.9-0.8-1.8-1.2-2.7C10,7.3,9.3,5.6,8.5,4z M15.1,23.2
	c0.5-0.5,1-0.9,1.5-1.4c-0.4-0.9-0.9-1.9-1.3-2.9c-0.3,0.8-0.7,1.5-1,2.2c0,0.1,0,0.2,0,0.3C14.6,22,14.9,22.6,15.1,23.2z"/>
</svg>
