<?xml version="1.0" encoding="utf-8"?>
<!-- Generator: Adobe Illustrator 23.0.5, SVG Export Plug-In . SVG Version: 6.00 Build 0)  -->
<svg version="1.1" id="Layer_1" xmlns="http://www.w3.org/2000/svg" xmlns:xlink="http://www.w3.org/1999/xlink" x="0px" y="0px"
	 viewBox="0 0 384 384" style="enable-background:new 0 0 384 384;" xml:space="preserve">
<style type="text/css">
	.st0{fill:#24163A;}
	.st1{clip-path:url(#SVGID_2_);fill:#FDAA2A;}
	.st2{fill:#FDAA2A;}
</style>
<g>
	<path class="st0" d="M289.5,384c-96.5,0-193,0-289.5,0c0-26.7,0-53.5,0-80.2c0-4.6,0.3-9.2,0.8-13.8c3.6-33.5,33.4-63.5,67-67.2
		c7.2-0.8,14.4-0.8,21.6-1.2c0.1-0.2,0.3-0.4,0.3-0.6c0.1-3-0.1-6,0.2-9c0.3-3-0.8-5-3.2-7C74.8,195.2,67,182.7,63,167.7
		c-0.9-3.3-0.6-8.2-2.7-9.7c-2.4-1.7-7-0.5-10.6-0.6c-11.6-0.3-21.2-4.8-27.9-14.4c-7.6-10.8-8.6-22.6-2.6-34.4
		c6-11.9,16-18.2,29.4-18.7c3.9-0.2,7.9,0,11.8,0c0.3-0.4,0.6-0.7,0.9-1.1c-1-1.8-1.5-4.5-3-5.4C39,71.8,29.4,54.7,29.3,32.2
		c0-10.8,0-21.5-0.1-32.2c30,0,60,0,90,0c7.2,1.7,13.9,4.4,19.3,10c5.9-5.7,13.1-8.1,20.5-10c4.3,0,8.5,0,12.8,0
		c0.3,0.2,0.6,0.5,0.9,0.6c16.1,2.1,32.7,17.2,32.2,39.6c-0.4,15.1-0.1,30.3-0.1,45.4c0,1.3,0,2.7,0,4.4c4.3,0,8.1-0.1,11.9,0
		c17.2,0.3,31.9,14,33,30.8c1.2,18-10.9,33.6-28.4,36c-5.5,0.8-11.1,0.6-16.6,0.9c-0.2,0.4-0.4,0.6-0.4,0.9
		c-2.7,19.6-11.7,35.6-27.2,48c-0.7,0.6-1.5,1.6-1.5,2.4c-0.1,4.2-0.1,8.4-0.1,13.3c6.3,0,12.1-0.3,17.9,0.1
		c2.8,0.2,4.2-0.5,5.8-2.6c18.6-24.1,43-38,73.5-40.6c49.4-4.2,94.3,27.2,107.4,75.2c1.7,6.1,2.5,12.4,3.7,18.7c0,5.5,0,11,0,16.5
		c-0.2,1.1-0.5,2.1-0.7,3.2c-6.3,42.7-29.6,71.5-70.2,86C305.6,381.4,297.4,382.3,289.5,384z M216.5,361.4
		c-35.4-32.5-45.8-71.2-31.4-116.9c-3.8,0-7.5,0.1-11.2-0.1c-2.4-0.1-3.7,0.7-5.1,2.7c-15.5,23.8-48.2,26.6-67.6,6
		c-4.2-9.2-12-9.7-20.4-8.7c-0.4,0-0.8,0-1.1,0c-32.5,0.1-57.1,24.7-57.2,57.2c0,18.6,0,37.3,0,55.9c0,1.2,0.1,2.4,0.2,3.6
		c8.8,0,17.3,0,26.2,0c0-13.5,0-26.7,0-40c7.6,0,14.9,0,22.6,0c0,13.5,0,26.8,0,40.1C120,361.4,168,361.4,216.5,361.4z M361.5,281.5
		c0.1-44.1-35.9-80.2-80-80.3c-44-0.1-80.3,36-80.3,80.1c-0.1,44.1,36,80.2,80.1,80.3C325.4,361.6,361.4,325.6,361.5,281.5z
		 M83.4,90.6c-0.1,0.6-0.2,1.1-0.2,1.5c0,20-0.3,40,0.2,60c0.6,25.3,22.5,46.6,47.8,47.3c28.1,0.8,51-21.3,51.2-49.4
		c0.1-18.6,0-37.2,0-55.9c0-1.1-0.1-2.2-0.2-3.5C149.1,90.6,116.3,90.6,83.4,90.6z M182.3,67.9c0-10.1,0.1-19.6,0-29.1
		c-0.1-9-6.3-15.7-14.8-16.3c-10.5-0.7-17.5,4.5-19,13.9c-0.1,0.6-0.2,1.1-0.3,1.7c-7.5,0-14.7,0-22.1,0c-0.1-0.8-0.2-1.3-0.2-1.9
		c-0.3-9.9-4.2-13.7-14.1-13.7c-18.6,0-37.2,0-55.9,0c-1.3,0-2.6,0-4.1,0c0,3.5,0,6.3,0,9.2c0,21.9,14.2,36.2,36,36.2
		c30,0,60,0,90,0C179.2,67.9,180.5,67.9,182.3,67.9z M112.8,219.1c-1.7,9.1,1.7,17.4,8.8,22c6.9,4.5,15.8,4.5,22.6-0.2
		c7.6-5.3,9.9-12.7,8.6-21.8C139.5,222.8,126.3,222.9,112.8,219.1z M60.4,134.8c0-7.5,0-14.8,0-22.3c-3.8,0-7.4-0.1-11,0
		c-6,0.1-10.6,4.3-11.1,9.9c-0.6,6.1,3.3,11.5,9.5,12.3C51.8,135.2,56,134.8,60.4,134.8z M205.1,112.4c0,7.7,0,15,0,22.5
		c4,0,7.7,0.2,11.4,0c6.4-0.4,10.9-5.4,10.8-11.6c-0.2-6.2-5-10.7-11.5-10.8C212.4,112.4,208.9,112.4,205.1,112.4z"/>
	<g>
		<defs>
			<path id="SVGID_1_" d="M289.5,384c-96.5,0-193,0-289.5,0c0-26.7,0-53.5,0-80.2c0-4.6,0.3-9.2,0.8-13.8
				c3.6-33.5,33.4-63.5,67-67.2c7.2-0.8,14.4-0.8,21.6-1.2c0.1-0.2,0.3-0.4,0.3-0.6c0.1-3-0.1-6,0.2-9c0.3-3-0.8-5-3.2-7
				C74.8,195.2,67,182.7,63,167.7c-0.9-3.3-0.6-8.2-2.7-9.7c-2.4-1.7-7-0.5-10.6-0.6c-11.6-0.3-21.2-4.8-27.9-14.4
				c-7.6-10.8-8.6-22.6-2.6-34.4c6-11.9,16-18.2,29.4-18.7c3.9-0.2,7.9,0,11.8,0c0.3-0.4,0.6-0.7,0.9-1.1c-1-1.8-1.5-4.5-3-5.4
				C39,71.8,29.4,54.7,29.3,32.2c0-10.8,0-21.5-0.1-32.2c30,0,60,0,90,0c7.2,1.7,13.9,4.4,19.3,10c5.9-5.7,13.1-8.1,20.5-10
				c4.3,0,8.5,0,12.8,0c0.3,0.2,0.6,0.5,0.9,0.6c16.1,2.1,32.7,17.2,32.2,39.6c-0.4,15.1-0.1,30.3-0.1,45.4c0,1.3,0,2.7,0,4.4
				c4.3,0,8.1-0.1,11.9,0c17.2,0.3,31.9,14,33,30.8c1.2,18-10.9,33.6-28.4,36c-5.5,0.8-11.1,0.6-16.6,0.9c-0.2,0.4-0.4,0.6-0.4,0.9
				c-2.7,19.6-11.7,35.6-27.2,48c-0.7,0.6-1.5,1.6-1.5,2.4c-0.1,4.2-0.1,8.4-0.1,13.3c6.3,0,12.1-0.3,17.9,0.1
				c2.8,0.2,4.2-0.5,5.8-2.6c18.6-24.1,43-38,73.5-40.6c49.4-4.2,94.3,27.2,107.4,75.2c1.7,6.1,2.5,12.4,3.7,18.7c0,5.5,0,11,0,16.5
				c-0.2,1.1-0.5,2.1-0.7,3.2c-6.3,42.7-29.6,71.5-70.2,86C305.6,381.4,297.4,382.3,289.5,384z M216.5,361.4
				c-35.4-32.5-45.8-71.2-31.4-116.9c-3.8,0-7.5,0.1-11.2-0.1c-2.4-0.1-3.7,0.7-5.1,2.7c-15.5,23.8-48.2,26.6-67.6,6
				c-4.2-9.2-12-9.7-20.4-8.7c-0.4,0-0.8,0-1.1,0c-32.5,0.1-57.1,24.7-57.2,57.2c0,18.6,0,37.3,0,55.9c0,1.2,0.1,2.4,0.2,3.6
				c8.8,0,17.3,0,26.2,0c0-13.5,0-26.7,0-40c7.6,0,14.9,0,22.6,0c0,13.5,0,26.8,0,40.1C120,361.4,168,361.4,216.5,361.4z
				 M361.5,281.5c0.1-44.1-35.9-80.2-80-80.3c-44-0.1-80.3,36-80.3,80.1c-0.1,44.1,36,80.2,80.1,80.3
				C325.4,361.6,361.4,325.6,361.5,281.5z M83.4,90.6c-0.1,0.6-0.2,1.1-0.2,1.5c0,20-0.3,40,0.2,60c0.6,25.3,22.5,46.6,47.8,47.3
				c28.1,0.8,51-21.3,51.2-49.4c0.1-18.6,0-37.2,0-55.9c0-1.1-0.1-2.2-0.2-3.5C149.1,90.6,116.3,90.6,83.4,90.6z M182.3,67.9
				c0-10.1,0.1-19.6,0-29.1c-0.1-9-6.3-15.7-14.8-16.3c-10.5-0.7-17.5,4.5-19,13.9c-0.1,0.6-0.2,1.1-0.3,1.7c-7.5,0-14.7,0-22.1,0
				c-0.1-0.8-0.2-1.3-0.2-1.9c-0.3-9.9-4.2-13.7-14.1-13.7c-18.6,0-37.2,0-55.9,0c-1.3,0-2.6,0-4.1,0c0,3.5,0,6.3,0,9.2
				c0,21.9,14.2,36.2,36,36.2c30,0,60,0,90,0C179.2,67.9,180.5,67.9,182.3,67.9z M112.8,219.1c-1.7,9.1,1.7,17.4,8.8,22
				c6.9,4.5,15.8,4.5,22.6-0.2c7.6-5.3,9.9-12.7,8.6-21.8C139.5,222.8,126.3,222.9,112.8,219.1z M60.4,134.8c0-7.5,0-14.8,0-22.3
				c-3.8,0-7.4-0.1-11,0c-6,0.1-10.6,4.3-11.1,9.9c-0.6,6.1,3.3,11.5,9.5,12.3C51.8,135.2,56,134.8,60.4,134.8z M205.1,112.4
				c0,7.7,0,15,0,22.5c4,0,7.7,0.2,11.4,0c6.4-0.4,10.9-5.4,10.8-11.6c-0.2-6.2-5-10.7-11.5-10.8
				C212.4,112.4,208.9,112.4,205.1,112.4z"/>
		</defs>
		<clipPath id="SVGID_2_">
			<use xlink:href="#SVGID_1_"  style="overflow:visible;"/>
		</clipPath>
		<circle class="st1" cx="282" cy="281.3" r="103"/>
	</g>
	<path class="st2" d="M335.9,265.2c-5.8,7.8-11.1,15.5-16.9,22.8c-3,3.8-4.4,7.7-4.2,12.6c0.4,9.3,0.1,18.7,0.1,28.5
		c-3.1-1-5.9-1.8-8.7-2.8c-7.3-2.4-14.6-5-22-7.3c-1.8-0.5-4-0.5-5.7,0c-9,2.8-18,5.9-27,8.9c-1.2,0.4-2.4,0.7-3.8,1.1
		c0-10.3-0.1-20.3,0.1-30.2c0.1-3.6-0.8-6.4-3-9.3c-6.1-7.9-11.9-16-18.1-24.4c10-3.2,19.6-6.3,29.2-9.2c3.1-0.9,5.4-2.5,7.3-5.2
		c5.7-8.3,11.7-16.5,17.9-25c0.9,1.1,1.7,2,2.4,3c5.2,7.2,10.5,14.3,15.5,21.7c2,3,4.5,4.6,7.9,5.7
		C316.5,258.9,326,262.1,335.9,265.2z M270.4,298.3c7.5-4.4,14.6-3.8,22.4,0.4c-1.9-8.8,0.3-15.6,7.2-21.8
		c-9.4-0.6-14.9-5.1-18.9-13.4c-3.5,8.8-9.6,12.5-18.5,13.8C269.9,283.1,271.7,289.9,270.4,298.3z"/>
	<path class="st0" d="M98.6,140.8c7.8,0,14.8,0,22.1,0c0.3,1.1,0.6,2.2,0.9,3.3c1.5,4.9,6.2,8.4,11.2,8.4c5.1,0,10-3.5,11-8.5
		c0.6-3.1,2.1-3.4,4.6-3.3c5.7,0.1,11.5,0.1,17.2,0.1c0.2,0,0.4,0.2,1.1,0.5c-0.2,11.5-5,20.8-14.5,27.4c-11.6,8-24.1,8.6-36.4,1.7
		C104.7,164,99.1,154.1,98.6,140.8z"/>
</g>
</svg>
