<svg width="32" height="32" viewBox="0 0 32 32" fill="none" xmlns="http://www.w3.org/2000/svg"><circle cx="16" cy="16" r="16" fill="#B1FDE6" fill-opacity=".35"/><g clip-path="url(#a)"><path d="M11.113 10.816c0 .432-.002.866-.007 1.3 0 .282.135.449.411.478.249.026.446-.182.452-.47.01-.432 0-.863 0-1.316h4.577v1.209c0 .376.148.57.417.58.288.009.443-.188.445-.587.002-.399 0-.791 0-1.215.9 0 1.767-.015 2.636.007.298.008.438.236.465.529.112 1.213.226 2.426.342 3.64.022.232.04.47.065.751-2.091-.128-3.84.564-5.103 2.256-1.264 1.691-1.429 3.537-.722 5.545H8.484c-.27 0-.538-.036-.807-.055-.553-.294-.728-.734-.665-1.364.27-2.69.494-5.37.741-8.05.083-.909.177-1.817.263-2.725.03-.31.183-.527.498-.53.865-.006 1.732.009 2.599.017zM17.02 7.57c.521.984.376 2.047.387 3.12h-.859c0-.506.008-1.016 0-1.527a2.28 2.28 0 0 0-2.246-2.27 2.28 2.28 0 0 0-2.325 2.19c-.015.526 0 1.053 0 1.637h-.847c.01-.714-.07-1.442.048-2.137.22-1.295 1.036-2.149 2.309-2.471 1.302-.33 2.404.083 3.264 1.118.052.063.106.123.159.188l.07.08h-.01l.078.075-.028-.003z" fill="#6184FF"/><path d="M20.339 16.692a4.67 4.67 0 0 1 4.295 2.893 4.645 4.645 0 0 1-1.034 5.067 4.666 4.666 0 0 1-7.945-3.328 4.644 4.644 0 0 1 1.381-3.284 4.664 4.664 0 0 1 3.303-1.348zm-.565 5.177c-.371-.338-.71-.658-1.067-.965a.47.47 0 0 0-.691.043c-.18.224-.174.464.034.662.459.436.927.864 1.4 1.286a.454.454 0 0 0 .666-.007c.84-.795 1.677-1.6 2.51-2.415.205-.201.196-.453 0-.658-.198-.205-.435-.21-.66-.033a2.325 2.325 0 0 0-.182.167l-2.01 1.92z" fill="#28C065"/></g><defs><clipPath id="a"><path fill="#fff" transform="translate(7 6)" d="M0 0h18v20H0z"/></clipPath></defs></svg>