<svg width="32" height="32" viewBox="0 0 32 32" fill="none" xmlns="http://www.w3.org/2000/svg"><circle cx="16" cy="16" r="16" fill="#E9F1FD"/><g clip-path="url(#a)"><path d="M27 21.478c-.163.39-.475.522-.91.522a7803.63 7803.63 0 0 0-15.828-.004h-.265c-.058-.276.057-.675-.401-.662-.424.013-.32.383-.353.662h-.24c-1.032 0-2.063-.01-3.094.004-.436.006-.745-.131-.91-.522v-3.222c.114-.114.213-.25.347-.34 1.432-.968 1.432-2.866 0-3.832-.133-.09-.232-.225-.346-.34V10.52c.162-.39.474-.526.91-.521 1.03.014 2.062.004 3.093.004h.243c.033.284-.072.665.373.662.422-.004.333-.373.37-.662h.274c5.276 0 10.552-.001 15.827-.004.435 0 .745.13.91.52v10.958zm-8.537-.161h7.37c.333 0 .436-.096.436-.403v-9.787c0-.365-.086-.445-.477-.445H11.144c-.328 0-.472.13-.472.433v9.767c0 .303.143.435.47.435h7.321zm-9.208-5.328c0 .114-.006.228 0 .342a.332.332 0 0 0 .1.227.358.358 0 0 0 .475.034.318.318 0 0 0 .123-.206 4.67 4.67 0 0 0 0-.78c-.013-.17-.198-.285-.363-.273a.373.373 0 0 0-.228.101.332.332 0 0 0-.103.217c-.01.112-.002.226-.002.34l-.002-.002zm0 1.995c0 .114-.006.228 0 .341.011.193.142.32.332.33.176.011.353-.096.366-.268.022-.266.02-.533-.007-.799-.018-.174-.172-.257-.355-.255a.362.362 0 0 0-.23.096.32.32 0 0 0-.102.216c-.009.113-.001.227-.001.34l-.003-.001zm0-3.988c0 .114-.008.228 0 .341a.342.342 0 0 0 .338.328c.197 0 .344-.098.358-.28.024-.253.026-.507.007-.76a.318.318 0 0 0-.126-.213.36.36 0 0 0-.249-.07.336.336 0 0 0-.327.335c-.005.107 0 .214.001.322l-.002-.003zm0-1.983c0 .107-.006.215 0 .322.011.196.14.32.331.328.201.008.356-.091.372-.285a4.38 4.38 0 0 0 0-.74.316.316 0 0 0-.118-.22.358.358 0 0 0-.249-.077.377.377 0 0 0-.235.106.334.334 0 0 0-.1.227c-.006.113 0 .227 0 .34l-.001-.001zm0 7.964c0 .121-.01.242 0 .362.017.184.137.29.328.317a.345.345 0 0 0 .243-.063.311.311 0 0 0 .083-.092.291.291 0 0 0 .039-.114 4.26 4.26 0 0 0 .005-.78c-.018-.191-.18-.284-.383-.268a.325.325 0 0 0-.317.32c-.002.105.004.213.004.319h-.002z" fill="#FEC351"/><path d="M18.463 21.318h-7.321c-.326 0-.47-.132-.47-.436v-9.766c0-.303.144-.43.472-.43h14.648c.392 0 .477.08.477.445v9.786c0 .307-.103.403-.436.403l-7.37-.002zm3.73-6.11c-.045-.298-.252-.511-.55-.532a90.55 90.55 0 0 0-1.948-.12c-.15-.007-.223-.046-.279-.182a53.965 53.965 0 0 0-.717-1.68c-.162-.369-.58-.475-.866-.219a.89.89 0 0 0-.192.309c-.236.538-.458 1.083-.7 1.62-.025.061-.105.137-.166.141-.662.051-1.324.093-1.987.13-.272.014-.453.119-.532.332-.083.223-.011.425.196.587.49.38.974.77 1.466 1.144.128.097.146.187.107.328-.16.575-.308 1.152-.458 1.729-.065.244 0 .447.19.57.213.137.423.125.64-.004.55-.323 1.105-.645 1.652-.968a.239.239 0 0 1 .29 0c.554.331 1.114.655 1.67.982a.547.547 0 0 0 .622-.013c.181-.118.252-.326.191-.553-.159-.592-.316-1.18-.48-1.768-.034-.122-.021-.199.096-.288a44.131 44.131 0 0 0 1.495-1.178c.112-.096.174-.244.26-.367z" fill="#FED064"/></g><defs><clipPath id="a"><path fill="#fff" transform="translate(5 10)" d="M0 0h22v12H0z"/></clipPath></defs></svg>