<svg width="32" height="32" viewBox="0 0 32 32" fill="none" xmlns="http://www.w3.org/2000/svg"><circle cx="16" cy="16" r="16" fill="#E9F1FD"/><g clip-path="url(#a)"><path d="M17.56 20.454c1.49.61 2.998.615 4.517.119.156-.045.304-.115.436-.21.187-.145.374-.136.582-.088 1.554.35 2.63 1.497 2.871 3.066.003.016.02.03.031.045a2.617 2.617 0 0 1-2.616 2.617h-7.539c.125-.556.097-1.115.017-1.67-.037-.266-.114-.527-.173-.79.064.026.13.047.19.079.225.114.447.233.67.35.124.055.25.103.38.144.426.108.9-.184.898-.596a27.605 27.605 0 0 0-.096-2.012c-.027-.357-.11-.704-.168-1.054z" fill="#FD646F"/><path d="M8.293 26c-.16 0-.31-.096-.34-.253a5.296 5.296 0 0 1 .23-2.248c.143-.175.284-.351.431-.522.11-.128.118-.24.034-.399a3.566 3.566 0 0 1-.431-1.535c-.01-.522.014-1.043.236-1.528a.157.157 0 0 0 .004-.038.13.13 0 0 0 0-.031c.203-.378.468-.718.783-1.008.465-.313.962-.556 1.516-.66.224-.04.45-.061.672-.092l.526.113c.55.109 1.064.355 1.494.714.701.599.97 1.4.979 2.287a3.563 3.563 0 0 1-.464 1.805c-.313-.243-.621-.488-1.01-.6.178-.48.057-.829-.355-1.023a1.538 1.538 0 0 0-1.118-.084c-.489.146-.858.496-.596 1.104-.066.029-.132.056-.197.086-.556.26-1.011.634-1.28 1.2-.289.603-.112 1.186.462 1.526.54.32 1.136.421 1.753.436.587.042 1.17.014 1.735-.16.638-.198 1.27-.522 1.206-1.395.032.044.083.085.091.133.063.381.142.762.166 1.147.023.34-.018.685-.031 1.028L8.293 26zm4.847-6.451c-.195.072-.386.129-.564.212a.302.302 0 0 0-.156.406.3.3 0 0 0 .432.114c.21-.126.4-.111.605-.002.184.097.342.048.427-.116a.286.286 0 0 0-.147-.405c-.186-.087-.387-.137-.598-.209zm-2.454-.006c-.208.081-.42.144-.612.242a.265.265 0 0 0-.113.395.284.284 0 0 0 .403.104.597.597 0 0 1 .626-.007c.17.095.339.045.418-.104a.3.3 0 0 0-.038-.329.298.298 0 0 0-.091-.072c-.18-.089-.379-.147-.593-.229z" fill="#D5694B"/><path d="M13.964 22.607c.312-.55.472-1.174.464-1.806-.01-.887-.278-1.688-.978-2.287a3.337 3.337 0 0 0-1.495-.714l-.527-.114c1.117-.105 2.173.055 3.11.725a.33.33 0 0 0 .053.025c.03.032.06.068.093.098.692.608.943 1.408.957 2.295.01.626-.166 1.218-.457 1.767-.085.162-.06.264.037.38.137.163.282.32.423.48l.041.085c.059.26.136.521.173.79.08.557.108 1.116-.017 1.67h-1.054c.013-.343.052-.688.032-1.028-.025-.384-.105-.764-.166-1.147-.008-.048-.06-.09-.091-.133-.06-.438-.315-.768-.598-1.087z" fill="#C3573A"/><path d="M19.984 19.711c-.366-.026-.736-.046-1.102-.084-.042-.004-.105-.1-.107-.156-.01-.338-.012-.676 0-1.013.004-.137-.048-.185-.168-.234-1.4-.568-2.229-1.6-2.488-3.088a.723.723 0 0 1-.002-.117l-.04-1.281c.256-.252.516-.501.764-.762.04-.042.04-.133.04-.201-.003-.522-.033-1.049-.01-1.57.012-.246.1-.496.196-.727.114-.274.313-.35.606-.283.228.052.455.104.679.165.976.267 1.955.303 2.94.052.302-.076.607-.137.91-.206a.717.717 0 0 1 .076.112c.216.483.355.987.36 1.518.007.949.004 1.898 0 2.847.002.18-.015.362-.049.54-.332 1.575-1.252 2.626-2.803 3.101l-.29.092.008.047c.102 0 .204.008.305 0 .139-.012.179.044.176.179-.007.354-.002.713-.001 1.07zm1.058-3.366c-.045-.261-.25-.358-.496-.277a1.97 1.97 0 0 1-.597.12c-.193 0-.39-.066-.578-.124-.2-.062-.35-.029-.418.123-.079.18-.03.323.166.414.565.268 1.136.27 1.697-.008.094-.046.152-.164.226-.248zm-1.76-4.278c-.043-.044-.105-.167-.203-.2a1.84 1.84 0 0 0-1.237 0 .262.262 0 0 0-.171.345c.046.15.159.245.325.209.309-.076.631-.076.94 0 .181.048.339-.096.345-.351v-.003zm2.163.277c.15.023.303.044.456.07.183.03.329-.057.369-.225.033-.142-.056-.284-.223-.336-.386-.121-.8-.12-1.184.005a.287.287 0 0 0-.209.347c.038.156.188.242.361.212.142-.022.282-.046.43-.07v-.003zm-1.688 2.706c-.168-.05-.272.047-.31.183a.272.272 0 0 0 .082.296c.027.023.06.041.094.052a.883.883 0 0 0 .682 0 .29.29 0 0 0-.132-.556c-.138.012-.277.018-.416.027v-.002zm2.18-1.372c.005-.065.005-.13 0-.194a.278.278 0 0 0-.288-.237.28.28 0 0 0-.13.038c-.151.086-.165.232-.163.388.003.156.021.287.17.365.227.124.415-.039.41-.357v-.003zm-3.95-.01c0 .261.096.407.276.413.181.005.296-.123.31-.329.02-.31-.063-.47-.257-.49-.228-.025-.33.1-.33.407z" fill="#FECDBE"/><path d="M22.202 10.209c-.303.069-.608.13-.91.206-.985.25-1.964.214-2.94-.052-.225-.062-.453-.113-.679-.166-.292-.066-.492.01-.606.284-.096.23-.184.48-.195.726-.024.521.006 1.047.01 1.57 0 .069 0 .16-.041.202-.248.26-.508.51-.764.762l-.459-1.642c-.104-.626-.162-1.252-.052-1.878.132-.749.451-1.39 1.04-1.89a.362.362 0 0 0 .105-.242c.009-.47.226-.834.558-1.141.579-.537 1.278-.806 2.052-.902.361.153.719.314 1.084.457.133.053.275.08.418.081a2.63 2.63 0 0 1 1.079.209c.428.19.787.472.915.947a.466.466 0 0 0 .24.323c.39.21.709.533.912.927.334.63.19 1.427-.622 1.658-.127.036-.152.111-.16.227-.019.31-.048.618-.079.927-.003.035-.044.066-.067.1.004-.11 0-.22-.012-.329-.061-.353-.101-.715-.209-1.053-.101-.305-.32-.384-.618-.311z" fill="#BB7C63"/><path d="M22.202 10.209c.297-.073.517.006.614.313.11.338.149.7.209 1.053.012.11.016.22.012.329-.014.141-.034.283-.038.425-.006.212-.067.456.016.626.166.345.496.562.782.77.16-.54.314-1.066.47-1.59.47-.112.88.064 1.084.502.339.727.288 1.461-.089 2.15-.306.56-.83.649-1.352.282-.02-.014-.043-.024-.03-.016-.15.427-.26.869-.454 1.271-.433.907-1.148 1.528-2.082 1.894-.14.055-.19.122-.185.268.01.319 0 .637.005.956.002.128-.035.19-.174.196-.336.017-.671.047-1.007.072 0-.358-.006-.715 0-1.072.002-.135-.038-.191-.176-.179-.101.01-.204 0-.306 0l-.009-.047.292-.088c1.553-.475 2.47-1.526 2.803-3.102.034-.178.05-.359.048-.54.005-.949.008-1.898 0-2.847-.005-.53-.143-1.035-.36-1.518a.72.72 0 0 0-.073-.108z" fill="#FEB09E"/><path d="M8.453 19.515c-.222.487-.246 1.004-.235 1.527a.712.712 0 0 0-.071.148c-.078.332-.138.668-.226.998-.203.763-.678 1.308-1.385 1.652-.08.047-.155.101-.225.162a.683.683 0 0 1-.307-.578c-.035-1.513.178-2.987.739-4.4.162-.408.353-.81.737-1.073l.11.077c.25.19.512.37.748.578a.558.558 0 0 1 .149.337c.018.164-.016.334-.028.501a.13.13 0 0 1 0 .032c-.005.003-.014.007-.014.01a.11.11 0 0 0 .008.029z" fill="#97756E"/><path d="M24.268 12.135c-.157.525-.31 1.05-.47 1.59-.287-.208-.617-.424-.783-.769-.083-.173-.021-.417-.016-.626.004-.142.025-.284.039-.425.023-.034.063-.065.067-.1.03-.309.06-.617.079-.927.007-.116.032-.19.16-.227.812-.23.955-1.027.621-1.658a2.197 2.197 0 0 0-.912-.927.463.463 0 0 1-.24-.323c-.127-.475-.487-.757-.915-.947a2.63 2.63 0 0 0-1.079-.209 1.164 1.164 0 0 1-.414-.084c-.365-.143-.723-.304-1.084-.457.796-.114 1.554-.034 2.233.443.086.062.19.095.296.096.579-.025 1.128.06 1.614.398.302.209.522.479.592.858.013.071.1.145.172.187.508.302.908.692 1.077 1.278.175.608-.105 1.148-.71 1.335-.146.046-.183.112-.194.258-.029.413-.087.824-.133 1.236z" fill="#AA6B52"/><path d="M17.56 20.454c.058.35.14.697.168 1.05.052.668.094 1.34.096 2.012 0 .41-.472.703-.898.595a3.414 3.414 0 0 1-.38-.144c.078-.153.214-.303.224-.461a10.237 10.237 0 0 0-.157-2.474c-.134-.73-.305-1.456-.619-2.139-.16-.345-.313-.7-.657-.917.736-.285 1.057-.156 1.41.37.404.608.595 1.301.776 1.997.009.04.024.075.037.111z" fill="#82635E"/><path d="M15.335 17.978c.343.218.497.574.657.917.314.678.486 1.405.62 2.14.152.814.204 1.645.156 2.473-.01.156-.146.308-.223.461-.223-.117-.446-.235-.67-.35-.061-.031-.127-.052-.19-.079l-.041-.084c-.142-.16-.286-.317-.424-.48-.097-.116-.122-.219-.036-.38.29-.55.466-1.14.456-1.767-.014-.887-.264-1.684-.957-2.296-.033-.03-.062-.065-.093-.098l.745-.457z" fill="#97756E"/><path d="M15.617 12.099l.46 1.641.039 1.281c-.046.024-.09.05-.132.077-.438.313-.963.232-1.262-.216-.3-.447-.39-.968-.342-1.507.01-.116.027-.232.052-.345.134-.587.48-.99 1.185-.931z" fill="#FEB09E"/><path d="M6.31 24.002c.07-.06.145-.114.225-.16.71-.345 1.182-.887 1.386-1.652.088-.33.148-.667.225-.999a.71.71 0 0 1 .071-.147c.026.537.173 1.063.431 1.535.084.157.076.271-.034.399-.147.171-.288.348-.431.522-.062.032-.122.066-.185.097-.353.169-.701.353-1.064.5a.61.61 0 0 1-.624-.095zM8.46 19.445c.01-.167.045-.337.027-.501a.56.56 0 0 0-.15-.337c-.235-.208-.496-.388-.747-.578-.036-.027-.074-.052-.11-.077.252-.198.53-.115.797-.056.368.083.703.271.966.542-.316.29-.58.63-.784 1.007z" fill="#82635E"/><path d="M11.62 25.25c-.616-.015-1.213-.116-1.753-.436-.574-.34-.75-.923-.462-1.527.27-.565.724-.939 1.28-1.2.066-.03.132-.057.197-.086.112.11.205.27.338.317.426.152.439.474.4.835v.078c-.014.111.005.283-.056.32-.155.091-.328.146-.507.16-.117.01-.243-.074-.365-.108-.084-.024-.19-.071-.255-.04-.088.04-.2.142-.204.223a.4.4 0 0 0 .14.306c.446.294.913.292 1.388.052.075-.037.197-.063.261-.028a1.456 1.456 0 0 0 1.205.117c.033.229-.144.34-.282.454-.296.25-.658.369-1.031.456-.1.03-.198.065-.293.107z" fill="#FECDBE"/><path d="M13.223 24.234a1.456 1.456 0 0 1-1.205-.117c-.063-.035-.185-.01-.26.028-.476.238-.94.24-1.388-.052a.399.399 0 0 1-.14-.306c.004-.081.116-.183.203-.224.066-.03.171.018.255.04.124.035.25.12.366.11.179-.015.352-.07.507-.16.06-.038.04-.209.056-.321.004-.026 0-.052 0-.078.038-.36.026-.678-.4-.835-.134-.047-.227-.209-.338-.317-.261-.608.107-.958.596-1.103.37-.114.771-.084 1.12.084.412.195.533.544.354 1.023l-.47.434c-.091.07-.27.029-.268.22.003.257-.004.516.005.774a.215.215 0 0 0 .088.149c.251.162.516.187.788.046.068-.036.14-.064.209-.097.163.02.287.086.313.264.025.178-.085.274-.224.349-.052.03-.11.061-.167.089z" fill="#82635E"/><path d="M13.223 24.234c.057-.03.115-.059.172-.09.139-.075.25-.17.224-.349-.027-.179-.152-.244-.313-.263-.137-.47-.387-.85-.824-1.093l.47-.433c.39.112.699.357 1.01.6.28.319.538.649.599 1.088.063.872-.569 1.197-1.207 1.395-.564.174-1.148.202-1.734.16.094-.04.19-.076.289-.104.373-.087.735-.205 1.032-.456.138-.117.314-.226.282-.455z" fill="#FEB09E"/><path d="M13.14 19.549c.208.072.411.122.595.209a.288.288 0 0 1 .148.405c-.085.164-.244.213-.427.116-.205-.11-.397-.124-.605.002a.3.3 0 0 1-.433-.114.303.303 0 0 1 .157-.406c.18-.083.37-.14.565-.212zM10.687 19.543c.214.082.412.14.593.231a.297.297 0 0 1 .13.401c-.08.147-.25.197-.418.104a.597.597 0 0 0-.627.007.286.286 0 0 1-.327-.016.283.283 0 0 1-.075-.088.265.265 0 0 1 .112-.395c.191-.1.401-.163.612-.244zM8.453 19.515a.111.111 0 0 1-.01-.029l.015-.01a.157.157 0 0 1-.005.039z" fill="#82635E"/><path d="M21.042 16.345c-.075.084-.132.202-.226.248-.56.279-1.131.276-1.697.009-.195-.092-.244-.236-.165-.415.067-.152.217-.185.417-.123.189.059.385.124.578.124a1.97 1.97 0 0 0 .597-.12c.246-.08.451.015.496.277z" fill="#FEB09E"/><path d="M19.281 12.07c-.006.255-.164.397-.343.352a1.977 1.977 0 0 0-.94 0c-.166.039-.279-.056-.326-.208a.262.262 0 0 1 .172-.346 1.84 1.84 0 0 1 1.237 0c.094.035.158.158.2.202zM21.445 12.346l-.428.073c-.173.03-.322-.057-.36-.212a.287.287 0 0 1 .208-.346 1.942 1.942 0 0 1 1.184-.005c.167.052.256.194.223.336-.04.167-.186.255-.37.225-.154-.026-.308-.048-.457-.07z" fill="#AA6B52"/><path d="M19.757 15.052c.138-.009.278-.015.417-.028a.29.29 0 0 1 .132.56.882.882 0 0 1-.682 0 .274.274 0 0 1-.177-.348c.038-.136.142-.232.31-.184z" fill="#FEB09E"/><path d="M21.937 13.68c.004.32-.184.482-.414.36-.148-.078-.167-.214-.169-.365-.002-.15.012-.302.163-.388a.28.28 0 0 1 .418.199c.006.065.007.13.002.195zM17.987 13.669c0-.307.101-.432.33-.406.193.022.276.18.255.49-.013.205-.134.333-.309.328-.175-.006-.276-.151-.276-.412z" fill="#AA6B52"/><path d="M12.481 22.44c.437.242.687.625.824 1.092-.071.032-.143.061-.21.096-.272.142-.536.116-.787-.046a.215.215 0 0 1-.089-.149c-.008-.258 0-.516-.005-.774-.003-.19.175-.15.267-.22z" fill="#FECDBE"/></g><defs><clipPath id="a"><path fill="#fff" transform="translate(6 6)" d="M0 0h20v20H0z"/></clipPath></defs></svg>