<svg width="32" height="32" viewBox="0 0 32 32" fill="none" xmlns="http://www.w3.org/2000/svg"><circle cx="16" cy="16" r="16" fill="#EEE"/><g clip-path="url(#a)"><path d="M13.258 25h-.493c-.134-.043-.267-.084-.4-.128l-4.28-1.425C7.403 23.221 7 22.671 7 21.952V8.542a1.553 1.553 0 0 1 .018-.263c.143-.825.811-1.322 1.708-1.273.073.02.146.039.218.063 1.517.504 3.036 1.006 4.55 1.518.59.198.995.753.995 1.338.002 4.277.002 8.555 0 12.831 0 .263.01.525.003.787a1.48 1.48 0 0 1-1.06 1.391c-.06.018-.116.044-.174.065z" fill="#64B4F5"/><path d="M25 14.664c-.136.186-.253.392-.413.554-.909.922-1.829 1.832-2.742 2.75-.203.204-.433.322-.725.269-.372-.067-.617-.37-.619-.763-.003-.67 0-1.336 0-2.003v-.217h-2.939c-.41 0-.712-.23-.79-.588a.742.742 0 0 1 .737-.913c.926-.005 1.852-.002 2.777-.002h.215v-.2-1.985c0-.366.164-.644.463-.758.33-.125.617-.042.865.207.972.976 1.949 1.945 2.916 2.924.11.111.172.27.256.406l-.001.32z" fill="#607D8B"/><path d="M8.726 7.006C9.054 7.004 9.382 7 9.71 7h6.994c1.156 0 2.069.769 2.268 1.902.017.11.025.221.023.332.002.955.002 1.91 0 2.865 0 .04-.004.08-.009.146h-.208c-.515.007-1.032-.015-1.544.028-1.057.088-1.932 1.026-1.978 2.084-.05 1.14.704 2.136 1.786 2.34.185.033.373.049.56.048.456.006.912.002 1.385.002.004.077.01.139.01.2v3.48c-.003 1.355-.974 2.322-2.328 2.325-.727 0-1.453.002-2.18.006V9.927c0-.586-.405-1.14-.994-1.339-1.515-.513-3.034-1.015-4.55-1.518-.073-.025-.146-.043-.219-.064z" fill="#2196F2"/></g><defs><clipPath id="a"><path fill="#fff" transform="translate(7 7)" d="M0 0h18v18H0z"/></clipPath></defs></svg>