<svg width="32" height="32" viewBox="0 0 32 32" fill="none" xmlns="http://www.w3.org/2000/svg"><circle cx="16" cy="16" r="16" fill="#F8B61B" fill-opacity=".2"/><g clip-path="url(#a)"><path d="M10.573 16.876c.115-.013.229-.033.344-.037.195-.006.39 0 .586 0l.894 1.556c-.01.283-.027.566-.03.85-.007.734-.01 1.468-.012 2.202 0 .261.026.29.273.29h2.586c.216.191.435.379.647.575.104.099.19.092.293 0 .217-.198.443-.386.665-.579.035 0 .071.006.107.006h6.657l.107.814.138 1.05-2.401-.01c-.137 0-.194.099-.196.215-.004.35.005.702.009 1.052L21.226 26H19.4l-.012-1.146c.003-.315.008-.63.01-.944 0-.271-.052-.324-.312-.324h-7.39l-2.554.003-.93-.011.121-1.163c.019-.175.037-.35.059-.526.007-.052.023-.104.034-.155l.965-.004c.291 0 .583 0 .875.006.165 0 .234-.08.239-.248.006-.475.022-.95.029-1.425.014-1.063.027-2.125.038-3.187z" fill="#F7F6F6"/><path d="M19.389 24.854L19.4 26H8.573c-.443-.235-.611-.496-.564-.873.021-.177.042-.354.065-.53.048-.34.096-.68.14-1.019l.93.012c.003.092-.001.185-.012.277-.106.556.227.983.772.983h6.323c1.054 0 2.108.002 3.162.004zM21.226 26l.015-1.145h2.722c.012.164.047.332.032.493-.036.344-.27.528-.556.653L21.226 26z" fill="#C3E356"/><path d="M16.82 21.73c-.223.192-.449.38-.666.578-.105.094-.189.1-.293 0-.212-.198-.43-.384-.647-.574-.035-.041-.07-.083-.106-.123-.594-.654-1.2-1.295-1.776-1.966-.338-.394-.625-.834-.935-1.254l-.894-1.554c-.21-.542-.454-1.074-.625-1.63-.534-1.74-.5-3.464.308-5.113.852-1.74 2.229-2.767 4.095-3.039 2.539-.37 4.93 1.154 5.807 3.662.561 1.604.49 3.2-.05 4.787-.158.463-.368.909-.554 1.363-.11.205-.216.412-.33.614-.856 1.522-1.95 2.844-3.167 4.064-.059.058-.112.124-.168.185zm3.23-8.715a4.311 4.311 0 0 0-.676-2.333 4.08 4.08 0 0 0-1.81-1.55 3.906 3.906 0 0 0-2.336-.246 3.999 3.999 0 0 0-2.073 1.144 4.248 4.248 0 0 0-1.111 2.145 4.344 4.344 0 0 0 .224 2.425c.304.768.82 1.425 1.484 1.888a3.94 3.94 0 0 0 2.244.713 3.972 3.972 0 0 0 2.862-1.222 4.28 4.28 0 0 0 1.192-2.964z" fill="#DC646E"/><path d="M16.82 21.73c.055-.062.108-.127.167-.186 1.217-1.218 2.31-2.54 3.167-4.064.114-.203.22-.41.33-.614l1.818.004c.455 0 .728.26.784.727.15 1.226.303 2.45.454 3.676.019.153.029.306.043.46h-6.657c-.036.002-.072-.001-.107-.003z" fill="#D1E97B"/><path d="M9.393 21.73l-.963.004c.065-.562.128-1.124.195-1.685l.27-2.235c.014-.11.023-.221.043-.33a.76.76 0 0 1 .247-.437.71.71 0 0 1 .46-.175c.106 0 .213.003.32.005-.028.28-.053.561-.086.842-.052.438-.11.876-.163 1.313-.056.45-.113.9-.167 1.349-.054.45-.104.9-.156 1.35z" fill="#C3E356"/><path d="M9.393 21.73c.052-.45.102-.9.156-1.35.054-.451.111-.9.167-1.35.054-.437.111-.874.163-1.312.033-.28.058-.56.086-.843h.608l-.04 3.186c-.006.476-.022.95-.028 1.426-.003.17-.072.251-.239.248-.29-.003-.582-.003-.873-.005zM23.963 24.854h-2.721c-.004-.35-.013-.701-.009-1.052 0-.118.058-.216.195-.216.801.003 1.602.007 2.402.012l.133 1.256zM19.389 24.854c-1.055 0-2.108-.001-3.162-.004H9.903c-.545 0-.878-.427-.772-.984.01-.091.015-.184.013-.276l2.553-.003h7.39c.26 0 .312.052.311.323-.001.314-.006.63-.01.944zM12.397 18.393c.31.42.597.86.935 1.254.573.67 1.182 1.312 1.776 1.966l.106.122h-2.586c-.247 0-.275-.03-.273-.29.003-.735.005-1.469.012-2.203.003-.283.02-.566.03-.85z" fill="#D1E97B"/><path d="M20.05 13.015a4.31 4.31 0 0 1-.695 2.325 4.077 4.077 0 0 1-1.822 1.533 3.906 3.906 0 0 1-2.335.225 4.001 4.001 0 0 1-2.063-1.157 4.25 4.25 0 0 1-1.096-2.152 4.345 4.345 0 0 1 .238-2.422 4.166 4.166 0 0 1 1.494-1.876 3.938 3.938 0 0 1 2.245-.7c.533 0 1.06.111 1.55.325.492.213.937.525 1.312.918.375.392.671.857.872 1.369.201.512.303 1.06.3 1.612z" fill="#F7F6F6"/></g><defs><clipPath id="a"><path fill="#fff" transform="translate(8 7)" d="M0 0h16v19H0z"/></clipPath></defs></svg>