<svg width="32" height="32" viewBox="0 0 32 32" fill="none" xmlns="http://www.w3.org/2000/svg"><circle cx="16" cy="16" r="16" fill="#F6EDFF"/><g clip-path="url(#a)"><path d="M17.72 8.514c-.375 0-.732.119-1.031.343l-1.164.873c.256-.728.475-1.45.475-1.788a1.72 1.72 0 0 0-1.718-1.72 1.72 1.72 0 0 0-1.719 1.72c0 .339.22 1.06.475 1.788l-1.163-.873a1.72 1.72 0 0 0-2.75 1.376 1.72 1.72 0 0 0 1.72 1.719v-1.146a.573.573 0 0 1-.574-.573c0-.441.565-.724.917-.459l2.623 1.969h.941l2.624-1.969c.35-.264.916.018.916.46a.573.573 0 0 1-.573.572v1.146a1.72 1.72 0 0 0 1.719-1.719 1.72 1.72 0 0 0-1.719-1.719zm-3.438 1.283c-.32-.867-.57-1.636-.573-1.855a.573.573 0 0 1 1.146-.001c-.003.22-.253.989-.573 1.856z" fill="#FF9827"/><path d="M17.376 9.774c.35-.264.916.018.916.46a.573.573 0 0 1-.573.572v1.146a1.72 1.72 0 0 0 1.719-1.719 1.72 1.72 0 0 0-2.75-1.376l-1.163.873c.256-.728.475-1.45.475-1.788a1.72 1.72 0 0 0-1.718-1.72V7.37c.316 0 .573.256.573.572-.003.22-.253.989-.573 1.856v1.945h.47l2.624-1.968z" fill="#FF641A"/><path d="M14.282 11.952H7.98v13.826h4.583l1.146-1.145h6.875V11.952h-6.302z" fill="#5ECEF4"/><path d="M14.282 11.952h6.302v12.68h-6.302v-12.68z" fill="#4895FF"/><path d="M16 10.806l-1.145 1.146h-1.146l-1.146-1.146h-5.73v2.292H21.73v-2.292H16z" fill="#99E6FF"/><path d="M21.73 10.806H16l-1.145 1.146h-.573v1.146h7.448v-2.292z" fill="#5ECEF4"/><path d="M14.282 10.806h-1.719v5.768l1.309 1.145H16v-6.913h-1.718z" fill="#FFC550"/><path d="M14.282 10.806H16v6.913h-1.718v-6.913z" fill="#FF9827"/><path d="M25.167 16.573h-5.729l-.573 1.1-.024.046-.549-1.146h-5.729v4.584l1.146.597-1.146.549v3.475h5.73l.572-1.026.067-.12.506 1.146h5.73v-3.475l-1.147-.604 1.146-.542v-4.584z" fill="#FF435B"/><path d="M19.438 25.778h5.73v-3.475l-1.147-.604 1.146-.542v-4.584h-5.729l-.573 1.1v7.079l.067-.12.506 1.146z" fill="#D0004F"/><path d="M21.157 21.157h4.01v1.146h-4.01v-1.146z" fill="#FF9827"/><path d="M12.563 21.157h4.01v1.146h-4.01v-1.146zM18.865 16.573h-.573v9.205h1.146v-9.204h-.573z" fill="#FFC550"/><path d="M18.865 16.573h.573v9.205h-.573v-9.204z" fill="#FF9827"/><path d="M21.157 18.865c-.538 0-1.053.257-1.376.688l-.916 1.222-.916-1.221a1.72 1.72 0 0 0-3.095 1.03 1.72 1.72 0 0 0 1.72 1.719h.908l-.74.74.81.81 1.313-1.313 1.314 1.314.81-.81-.74-.741h.908a1.72 1.72 0 0 0 1.718-1.72 1.72 1.72 0 0 0-1.718-1.718zm-4.584 2.292a.573.573 0 0 1-.573-.573c0-.499.733-.743 1.032-.344l.688.917h-1.146zm4.584 0H20.01l.687-.916a.573.573 0 1 1 .46.916z" fill="#FFC550"/><path d="M20.989 23.043l-.74-.74h.908a1.72 1.72 0 0 0 1.719-1.72 1.72 1.72 0 0 0-3.095-1.03l-.916 1.222v1.765l1.314 1.314.81-.81zm-.292-2.802a.573.573 0 1 1 .46.916H20.01l.687-.916z" fill="#FF9827"/></g><defs><clipPath id="a"><path fill="#fff" transform="translate(6.223 6.223)" d="M0 0h19.556v19.556H0z"/></clipPath></defs></svg>